<svg width="16" height="16" viewBox="0 0 16 16" fill="none" xmlns="http://www.w3.org/2000/svg">
<rect width="16" height="16" rx="8" fill="#0474F3"/>
<mask id="path-2-outside-1_1593_6123" maskUnits="userSpaceOnUse" x="2.92383" y="4.53711" width="10" height="7" fill="black">
<rect fill="white" x="2.92383" y="4.53711" width="10" height="7"/>
<path fill-rule="evenodd" clip-rule="evenodd" d="M11.8494 6.01389C11.9585 5.90482 11.9585 5.72798 11.8494 5.61891C11.7403 5.50984 11.5635 5.50984 11.4544 5.61891L7.02836 10.045L4.40061 7.41721C4.29154 7.30814 4.1147 7.30814 4.00563 7.41721C3.89656 7.52628 3.89656 7.70312 4.00563 7.81219L6.732 10.5386C6.89348 10.7 7.15529 10.7 7.31677 10.5386L7.41751 10.4378L7.42148 10.4418L11.8494 6.01389Z"/>
</mask>
<path fill-rule="evenodd" clip-rule="evenodd" d="M11.8494 6.01389C11.9585 5.90482 11.9585 5.72798 11.8494 5.61891C11.7403 5.50984 11.5635 5.50984 11.4544 5.61891L7.02836 10.045L4.40061 7.41721C4.29154 7.30814 4.1147 7.30814 4.00563 7.41721C3.89656 7.52628 3.89656 7.70312 4.00563 7.81219L6.732 10.5386C6.89348 10.7 7.15529 10.7 7.31677 10.5386L7.41751 10.4378L7.42148 10.4418L11.8494 6.01389Z" fill="white"/>
<path d="M11.8494 5.61891L11.9185 5.54976V5.54976L11.8494 5.61891ZM11.8494 6.01389L11.9185 6.08304V6.08304L11.8494 6.01389ZM11.4544 5.61891L11.5236 5.68807V5.68807L11.4544 5.61891ZM7.02836 10.045L6.9592 10.1141L7.02836 10.1833L7.09751 10.1141L7.02836 10.045ZM4.40061 7.41721L4.46976 7.34805L4.40061 7.41721ZM4.00563 7.41721L3.93648 7.34805H3.93648L4.00563 7.41721ZM4.00563 7.81219L4.07479 7.74303H4.07479L4.00563 7.81219ZM6.732 10.5386L6.66285 10.6077H6.66285L6.732 10.5386ZM7.31677 10.5386L7.38593 10.6077L7.31677 10.5386ZM7.41751 10.4378L7.48666 10.3687L7.41751 10.2995L7.34835 10.3687L7.41751 10.4378ZM7.42148 10.4418L7.35232 10.5109L7.42148 10.5801L7.49063 10.5109L7.42148 10.4418ZM11.7802 5.68807C11.8511 5.75894 11.8511 5.87386 11.7802 5.94473L11.9185 6.08304C12.0658 5.93578 12.0658 5.69702 11.9185 5.54976L11.7802 5.68807ZM11.5236 5.68807C11.5944 5.61719 11.7093 5.61719 11.7802 5.68807L11.9185 5.54976C11.7713 5.40249 11.5325 5.40249 11.3852 5.54976L11.5236 5.68807ZM7.09751 10.1141L11.5236 5.68807L11.3852 5.54976L6.9592 9.9758L7.09751 10.1141ZM4.33145 7.48636L6.9592 10.1141L7.09751 9.9758L4.46976 7.34805L4.33145 7.48636ZM4.07479 7.48636C4.14566 7.41549 4.26058 7.41549 4.33145 7.48636L4.46976 7.34805C4.3225 7.20079 4.08374 7.20079 3.93648 7.34805L4.07479 7.48636ZM4.07479 7.74303C4.00391 7.67215 4.00391 7.55724 4.07479 7.48636L3.93648 7.34805C3.78921 7.49532 3.78921 7.73408 3.93648 7.88134L4.07479 7.74303ZM6.80116 10.4694L4.07479 7.74303L3.93648 7.88134L6.66285 10.6077L6.80116 10.4694ZM7.24762 10.4694C7.12433 10.5927 6.92444 10.5927 6.80116 10.4694L6.66285 10.6077C6.86252 10.8074 7.18626 10.8074 7.38593 10.6077L7.24762 10.4694ZM7.34835 10.3687L7.24762 10.4694L7.38593 10.6077L7.48666 10.507L7.34835 10.3687ZM7.49063 10.3726L7.48666 10.3687L7.34835 10.507L7.35232 10.5109L7.49063 10.3726ZM11.7802 5.94473L7.35232 10.3726L7.49063 10.5109L11.9185 6.08304L11.7802 5.94473Z" fill="white" mask="url(#path-2-outside-1_1593_6123)"/>
</svg>
