<svg width="24" height="24" viewBox="0 0 24 24" fill="none" xmlns="http://www.w3.org/2000/svg">
<mask id="mask0_1634_11740" style="mask-type:alpha" maskUnits="userSpaceOnUse" x="0" y="0" width="24" height="24">
<rect y="24" width="24" height="24" transform="rotate(-90 0 24)" fill="#D9D9D9"/>
</mask>
<g mask="url(#mask0_1634_11740)">
<path d="M12.0002 16.2204L21.4349 6.78606C21.615 6.6057 21.8305 6.51663 22.0814 6.51888C22.3323 6.52132 22.5478 6.61273 22.728 6.79309C22.9084 6.97325 22.9985 7.18877 22.9985 7.43966C22.9985 7.69054 22.9084 7.90606 22.728 8.08622L13.39 17.4316C13.1925 17.6291 12.9723 17.7732 12.7293 17.8641C12.4862 17.955 12.2432 18.0005 12.0002 18.0005C11.7573 18.0005 11.5143 17.955 11.2711 17.8641C11.0282 17.7732 10.808 17.6291 10.6105 17.4316L1.26546 8.08622C1.0851 7.90606 0.996138 7.68931 0.998584 7.43599C1.00083 7.18287 1.09213 6.96622 1.27249 6.78606C1.45266 6.6057 1.66818 6.51552 1.91906 6.51552C2.16994 6.51552 2.38546 6.6057 2.56562 6.78606L12.0002 16.2204Z" fill="#1C1B1F"/>
</g>
</svg>
