<svg width="36" height="36" viewBox="0 0 36 36" fill="none" xmlns="http://www.w3.org/2000/svg">
<mask id="path-1-outside-1_1242_10175" maskUnits="userSpaceOnUse" x="6.50146" y="11.0005" width="23" height="15" fill="black">
<rect fill="white" x="6.50146" y="11.0005" width="23" height="15"/>
<path fill-rule="evenodd" clip-rule="evenodd" d="M28.2865 13.2521C28.5728 12.9657 28.5728 12.5015 28.2865 12.2152C28.0002 11.9289 27.536 11.9289 27.2497 12.2152L15.6426 23.8223L8.75303 16.9327C8.46672 16.6464 8.00251 16.6464 7.7162 16.9327C7.42989 17.219 7.42989 17.6832 7.7162 17.9696L14.873 25.1264C15.2969 25.5503 15.9842 25.5503 16.4081 25.1264L16.661 24.8734L16.6631 24.8755L28.2865 13.2521Z"/>
</mask>
<path fill-rule="evenodd" clip-rule="evenodd" d="M28.2865 13.2521C28.5728 12.9657 28.5728 12.5015 28.2865 12.2152C28.0002 11.9289 27.536 11.9289 27.2497 12.2152L15.6426 23.8223L8.75303 16.9327C8.46672 16.6464 8.00251 16.6464 7.7162 16.9327C7.42989 17.219 7.42989 17.6832 7.7162 17.9696L14.873 25.1264C15.2969 25.5503 15.9842 25.5503 16.4081 25.1264L16.661 24.8734L16.6631 24.8755L28.2865 13.2521Z" fill="currentColor"/>
<path d="M28.2865 12.2152L28.5889 11.9128V11.9128L28.2865 12.2152ZM28.2865 13.2521L28.5889 13.5545V13.5545L28.2865 13.2521ZM27.2497 12.2152L26.9473 11.9128L26.9473 11.9128L27.2497 12.2152ZM15.6426 23.8223L15.3402 24.1247L15.6426 24.4271L15.945 24.1247L15.6426 23.8223ZM8.75303 16.9327L8.45061 17.2351L8.75303 16.9327ZM7.7162 16.9327L7.41378 16.6303H7.41378L7.7162 16.9327ZM7.7162 17.9696L7.41378 18.272H7.41378L7.7162 17.9696ZM14.873 25.1264L15.1755 24.824L14.873 25.1264ZM16.4081 25.1264L16.1057 24.824L16.4081 25.1264ZM16.661 24.8734L16.9635 24.571L16.661 24.2686L16.3586 24.571L16.661 24.8734ZM16.6631 24.8755L16.3607 25.1779L16.6631 25.4803L16.9655 25.1779L16.6631 24.8755ZM27.9841 12.5176C28.1034 12.6369 28.1034 12.8303 27.9841 12.9496L28.5889 13.5545C29.0423 13.1011 29.0423 12.3661 28.5889 11.9128L27.9841 12.5176ZM27.5521 12.5176C27.6714 12.3984 27.8648 12.3984 27.9841 12.5176L28.5889 11.9128C28.1356 11.4595 27.4006 11.4595 26.9473 11.9128L27.5521 12.5176ZM15.945 24.1247L27.5521 12.5176L26.9473 11.9128L15.3402 23.5199L15.945 24.1247ZM8.45061 17.2351L15.3402 24.1247L15.945 23.5199L9.05545 16.6303L8.45061 17.2351ZM8.01862 17.2351C8.13791 17.1159 8.33132 17.1159 8.45061 17.2351L9.05545 16.6303C8.60212 16.177 7.86711 16.177 7.41378 16.6303L8.01862 17.2351ZM8.01862 17.6671C7.89933 17.5478 7.89933 17.3544 8.01862 17.2351L7.41378 16.6303C6.96044 17.0836 6.96044 17.8186 7.41378 18.272L8.01862 17.6671ZM15.1755 24.824L8.01862 17.6671L7.41378 18.272L14.5706 25.4288L15.1755 24.824ZM16.1057 24.824C15.8488 25.0808 15.4323 25.0808 15.1755 24.824L14.5706 25.4288C15.1615 26.0197 16.1196 26.0197 16.7105 25.4288L16.1057 24.824ZM16.3586 24.571L16.1057 24.824L16.7105 25.4288L16.9635 25.1759L16.3586 24.571ZM16.9655 24.5731L16.9635 24.571L16.3586 25.1759L16.3607 25.1779L16.9655 24.5731ZM27.9841 12.9496L16.3607 24.5731L16.9655 25.1779L28.5889 13.5545L27.9841 12.9496Z" fill="currentColor" mask="url(#path-1-outside-1_1242_10175)"/>
</svg>
