<svg width="32" height="32" viewBox="0 0 32 32" fill="none" xmlns="http://www.w3.org/2000/svg">
<path d="M8.03071 23.0563C9.16404 22.2154 10.3987 21.5513 11.7347 21.064C13.0705 20.5769 14.4923 20.3333 16 20.3333C17.5078 20.3333 18.9296 20.5769 20.2654 21.064C21.6014 21.5513 22.836 22.2154 23.9694 23.0563C24.7983 22.1452 25.455 21.0905 25.9397 19.8923C26.4244 18.6941 26.6667 17.3966 26.6667 16C26.6667 13.0444 25.6278 10.5278 23.55 8.44998C21.4723 6.3722 18.9556 5.33331 16 5.33331C13.0445 5.33331 10.5278 6.3722 8.45004 8.44998C6.37226 10.5278 5.33337 13.0444 5.33337 16C5.33337 17.3966 5.57571 18.6941 6.06037 19.8923C6.54504 21.0905 7.20182 22.1452 8.03071 23.0563ZM16.0004 17C14.783 17 13.7565 16.5822 12.9207 15.7466C12.0847 14.9109 11.6667 13.8843 11.6667 12.667C11.6667 11.4496 12.0845 10.4231 12.92 9.58731C13.7558 8.75131 14.7824 8.33331 15.9997 8.33331C17.217 8.33331 18.2436 8.75109 19.0794 9.58665C19.9154 10.4224 20.3334 11.449 20.3334 12.6663C20.3334 13.8836 19.9156 14.9102 19.08 15.746C18.2443 16.582 17.2177 17 16.0004 17ZM16 28.6666C14.2412 28.6666 12.5912 28.3359 11.05 27.6743C9.50893 27.0128 8.16837 26.1119 7.02837 24.9716C5.88815 23.8316 4.98726 22.4911 4.32571 20.95C3.66415 19.4089 3.33337 17.7589 3.33337 16C3.33337 14.2411 3.66415 12.5911 4.32571 11.05C4.98726 9.50887 5.88815 8.16831 7.02837 7.02831C8.16837 5.88809 9.50893 4.9872 11.05 4.32565C12.5912 3.66409 14.2412 3.33331 16 3.33331C17.7589 3.33331 19.4089 3.66409 20.95 4.32565C22.4912 4.9872 23.8317 5.88809 24.9717 7.02831C26.1119 8.16831 27.0128 9.50887 27.6744 11.05C28.3359 12.5911 28.6667 14.2411 28.6667 16C28.6667 17.7589 28.3359 19.4089 27.6744 20.95C27.0128 22.4911 26.1119 23.8316 24.9717 24.9716C23.8317 26.1119 22.4912 27.0128 20.95 27.6743C19.4089 28.3359 17.7589 28.6666 16 28.6666ZM16 26.6666C17.2034 26.6666 18.3636 26.4731 19.4807 26.086C20.5978 25.6986 21.5897 25.1572 22.4564 24.4616C21.5897 23.7914 20.6107 23.2692 19.5194 22.895C18.4278 22.5205 17.2547 22.3333 16 22.3333C14.7454 22.3333 13.5702 22.5183 12.4744 22.8883C11.3786 23.2585 10.4017 23.783 9.54371 24.4616C10.4104 25.1572 11.4023 25.6986 12.5194 26.086C13.6365 26.4731 14.7967 26.6666 16 26.6666ZM16 15C16.6634 15 17.218 14.7769 17.664 14.3306C18.1103 13.8846 18.3334 13.33 18.3334 12.6666C18.3334 12.0033 18.1103 11.4486 17.664 11.0026C17.218 10.5564 16.6634 10.3333 16 10.3333C15.3367 10.3333 14.782 10.5564 14.336 11.0026C13.8898 11.4486 13.6667 12.0033 13.6667 12.6666C13.6667 13.33 13.8898 13.8846 14.336 14.3306C14.782 14.7769 15.3367 15 16 15Z" fill="#0474f3"/>
</svg>
