<svg width="24" height="24" viewBox="0 0 24 24" fill="none" xmlns="http://www.w3.org/2000/svg">
<mask id="path-1-outside-1_1319_14983" maskUnits="userSpaceOnUse" x="3.99951" y="6.99951" width="16" height="11" fill="black">
<rect fill="white" x="3.99951" y="6.99951" width="16" height="11"/>
<path fill-rule="evenodd" clip-rule="evenodd" d="M18.8575 8.83389C19.0484 8.64301 19.0484 8.33354 18.8575 8.14267C18.6666 7.95179 18.3572 7.95179 18.1663 8.14267L10.4274 15.8815L5.83389 11.288C5.64301 11.0971 5.33354 11.0971 5.14267 11.288C4.95179 11.4789 4.95179 11.7883 5.14267 11.9792L9.91389 16.7504C10.1965 17.033 10.6547 17.033 10.9373 16.7504L11.1067 16.581L11.1086 16.5828L18.8575 8.83389Z"/>
</mask>
<path fill-rule="evenodd" clip-rule="evenodd" d="M18.8575 8.83389C19.0484 8.64301 19.0484 8.33354 18.8575 8.14267C18.6666 7.95179 18.3572 7.95179 18.1663 8.14267L10.4274 15.8815L5.83389 11.288C5.64301 11.0971 5.33354 11.0971 5.14267 11.288C4.95179 11.4789 4.95179 11.7883 5.14267 11.9792L9.91389 16.7504C10.1965 17.033 10.6547 17.033 10.9373 16.7504L11.1067 16.581L11.1086 16.5828L18.8575 8.83389Z" fill="white"/>
<path d="M18.8575 8.14267L19.0591 7.94105L18.8575 8.14267ZM18.8575 8.83389L18.6559 8.63227L18.6559 8.63227L18.8575 8.83389ZM18.1663 8.14267L18.3679 8.34428V8.34428L18.1663 8.14267ZM10.4274 15.8815L10.2258 16.0831L10.4274 16.2848L10.629 16.0831L10.4274 15.8815ZM5.83389 11.288L6.03551 11.0864L5.83389 11.288ZM5.14267 11.288L4.94105 11.0864L5.14267 11.288ZM5.14267 11.9792L4.94105 12.1808H4.94105L5.14267 11.9792ZM9.91389 16.7504L9.71228 16.9521L9.91389 16.7504ZM10.9373 16.7504L10.7356 16.5488L10.7356 16.5488L10.9373 16.7504ZM11.1067 16.581L11.3083 16.3794L11.1067 16.1778L10.9051 16.3794L11.1067 16.581ZM11.1086 16.5828L10.907 16.7845L11.1086 16.986L11.3102 16.7845L11.1086 16.5828ZM18.6559 8.34428C18.7354 8.42381 18.7354 8.55275 18.6559 8.63227L19.0591 9.03551C19.3614 8.73328 19.3614 8.24328 19.0591 7.94105L18.6559 8.34428ZM18.3679 8.34428C18.4474 8.26476 18.5764 8.26476 18.6559 8.34428L19.0591 7.94105C18.7569 7.63883 18.2669 7.63883 17.9647 7.94105L18.3679 8.34428ZM10.629 16.0831L18.3679 8.34428L17.9647 7.94105L10.2258 15.6799L10.629 16.0831ZM5.63227 11.4896L10.2258 16.0831L10.629 15.6799L6.03551 11.0864L5.63227 11.4896ZM5.34428 11.4896C5.42381 11.4101 5.55275 11.4101 5.63227 11.4896L6.03551 11.0864C5.73328 10.7842 5.24328 10.7842 4.94105 11.0864L5.34428 11.4896ZM5.34428 11.7776C5.26476 11.6981 5.26476 11.5691 5.34428 11.4896L4.94105 11.0864C4.63883 11.3886 4.63883 11.8786 4.94105 12.1808L5.34428 11.7776ZM10.1155 16.5488L5.34428 11.7776L4.94105 12.1808L9.71228 16.9521L10.1155 16.5488ZM10.7356 16.5488C10.5644 16.7201 10.2868 16.7201 10.1155 16.5488L9.71228 16.9521C10.1062 17.346 10.7449 17.346 11.1389 16.9521L10.7356 16.5488ZM10.9051 16.3794L10.7356 16.5488L11.1389 16.9521L11.3083 16.7826L10.9051 16.3794ZM11.3101 16.3812L11.3083 16.3794L10.9051 16.7826L10.907 16.7845L11.3101 16.3812ZM18.6559 8.63227L10.9069 16.3812L11.3102 16.7845L19.0591 9.03551L18.6559 8.63227Z" fill="white" mask="url(#path-1-outside-1_1319_14983)"/>
</svg>
