<svg width="32" height="32" viewBox="0 0 32 32" fill="none" xmlns="http://www.w3.org/2000/svg">
<path d="M25.4691 24.2601H24.7015V13.3859C24.7015 8.87313 21.3657 5.14392 17.0256 4.52345V3.27932C17.0256 2.57249 16.4531 2 15.7463 2C15.0394 2 14.467 2.57249 14.467 3.27932V4.52345C10.1269 5.14392 6.79104 8.87313 6.79104 13.3859V24.2601H6.02345C5.45736 24.2601 5 24.7175 5 25.2836V26.307C5 26.4478 5.11514 26.5629 5.25586 26.5629H12.1642C12.1642 28.5394 13.7697 30.145 15.7463 30.145C17.7228 30.145 19.3284 28.5394 19.3284 26.5629H26.2367C26.3774 26.5629 26.4925 26.4478 26.4925 26.307V25.2836C26.4925 24.7175 26.0352 24.2601 25.4691 24.2601ZM15.7463 28.0981C14.8987 28.0981 14.2111 27.4104 14.2111 26.5629H17.2814C17.2814 27.4104 16.5938 28.0981 15.7463 28.0981ZM9.09382 24.2601V13.3859C9.09382 11.6077 9.78465 9.93817 11.0416 8.68124C12.2985 7.42431 13.968 6.73348 15.7463 6.73348C17.5245 6.73348 19.194 7.42431 20.451 8.68124C21.7079 9.93817 22.3987 11.6077 22.3987 13.3859V24.2601H9.09382Z" fill="#555555"/>
</svg>
