<svg width="36" height="36" viewBox="0 0 36 36" fill="none" xmlns="http://www.w3.org/2000/svg">
<mask id="mask0_1117_2427" style="mask-type:alpha" maskUnits="userSpaceOnUse" x="0" y="0" width="36" height="36">
<rect width="36" height="36" fill="#1C1B1F"/>
</mask>
<g mask="url(#mask0_1117_2427)">
<path d="M8.42325 31.4999C7.73275 31.4999 7.15625 31.2687 6.69375 30.8062C6.23125 30.3437 6 29.7672 6 29.0767V9.92318C6 9.23268 6.23125 8.65618 6.69375 8.19368C7.15625 7.73118 7.73275 7.49993 8.42325 7.49993H11.0768V4.15381H12.6922V7.49993H23.4233V4.15381H24.9233V7.49993H27.5768C28.2673 7.49993 28.8438 7.73118 29.3063 8.19368C29.7688 8.65618 30 9.23268 30 9.92318V29.0767C30 29.7672 29.7688 30.3437 29.3063 30.8062C28.8438 31.2687 28.2673 31.4999 27.5768 31.4999H8.42325ZM8.42325 29.9999H27.5768C27.8078 29.9999 28.0194 29.9038 28.2116 29.7116C28.4039 29.5193 28.5 29.3077 28.5 29.0767V15.9232H7.5V29.0767C7.5 29.3077 7.59613 29.5193 7.78838 29.7116C7.98063 29.9038 8.19225 29.9999 8.42325 29.9999ZM7.5 14.4228H28.5V9.92318C28.5 9.69218 28.4039 9.48056 28.2116 9.28831C28.0194 9.09606 27.8078 8.99993 27.5768 8.99993H8.42325C8.19225 8.99993 7.98063 9.09606 7.78838 9.28831C7.59613 9.48056 7.5 9.69218 7.5 9.92318V14.4228ZM18 21.2306C17.6905 21.2306 17.4208 21.1157 17.1908 20.8859C16.961 20.6562 16.8461 20.3864 16.8461 20.0767C16.8461 19.7672 16.961 19.4976 17.1908 19.2678C17.4208 19.0381 17.6905 18.9232 18 18.9232C18.3095 18.9232 18.5793 19.0381 18.8092 19.2678C19.039 19.4976 19.1539 19.7672 19.1539 20.0767C19.1539 20.3864 19.039 20.6562 18.8092 20.8859C18.5793 21.1157 18.3095 21.2306 18 21.2306ZM12 21.2306C11.6905 21.2306 11.4208 21.1157 11.1908 20.8859C10.961 20.6562 10.8461 20.3864 10.8461 20.0767C10.8461 19.7672 10.961 19.4976 11.1908 19.2678C11.4208 19.0381 11.6905 18.9232 12 18.9232C12.3095 18.9232 12.5792 19.0381 12.8092 19.2678C13.039 19.4976 13.1539 19.7672 13.1539 20.0767C13.1539 20.3864 13.039 20.6562 12.8092 20.8859C12.5792 21.1157 12.3095 21.2306 12 21.2306ZM24 21.2306C23.6905 21.2306 23.4207 21.1157 23.1908 20.8859C22.961 20.6562 22.8461 20.3864 22.8461 20.0767C22.8461 19.7672 22.961 19.4976 23.1908 19.2678C23.4207 19.0381 23.6905 18.9232 24 18.9232C24.3095 18.9232 24.5793 19.0381 24.8092 19.2678C25.039 19.4976 25.1539 19.7672 25.1539 20.0767C25.1539 20.3864 25.039 20.6562 24.8092 20.8859C24.5793 21.1157 24.3095 21.2306 24 21.2306ZM18 26.9999C17.6905 26.9999 17.4208 26.8851 17.1908 26.6553C16.961 26.4256 16.8461 26.1558 16.8461 25.8461C16.8461 25.5366 16.961 25.2668 17.1908 25.0368C17.4208 24.8071 17.6905 24.6922 18 24.6922C18.3095 24.6922 18.5793 24.8071 18.8092 25.0368C19.039 25.2668 19.1539 25.5366 19.1539 25.8461C19.1539 26.1558 19.039 26.4256 18.8092 26.6553C18.5793 26.8851 18.3095 26.9999 18 26.9999ZM12 26.9999C11.6905 26.9999 11.4208 26.8851 11.1908 26.6553C10.961 26.4256 10.8461 26.1558 10.8461 25.8461C10.8461 25.5366 10.961 25.2668 11.1908 25.0368C11.4208 24.8071 11.6905 24.6922 12 24.6922C12.3095 24.6922 12.5792 24.8071 12.8092 25.0368C13.039 25.2668 13.1539 25.5366 13.1539 25.8461C13.1539 26.1558 13.039 26.4256 12.8092 26.6553C12.5792 26.8851 12.3095 26.9999 12 26.9999ZM24 26.9999C23.6905 26.9999 23.4207 26.8851 23.1908 26.6553C22.961 26.4256 22.8461 26.1558 22.8461 25.8461C22.8461 25.5366 22.961 25.2668 23.1908 25.0368C23.4207 24.8071 23.6905 24.6922 24 24.6922C24.3095 24.6922 24.5793 24.8071 24.8092 25.0368C25.039 25.2668 25.1539 25.5366 25.1539 25.8461C25.1539 26.1558 25.039 26.4256 24.8092 26.6553C24.5793 26.8851 24.3095 26.9999 24 26.9999Z" fill="#1D1D1D"/>
</g>
</svg>
