<svg width="20" height="20" viewBox="0 0 20 20" fill="none" xmlns="http://www.w3.org/2000/svg">
<circle cx="9.75" cy="9.75" r="8.33333" stroke="#0474F3" stroke-width="0.833333"/>
<mask id="path-2-outside-1_1038_552" maskUnits="userSpaceOnUse" x="4.82019" y="6.50549" width="10" height="7" fill="black">
<rect fill="white" x="4.82019" y="6.50549" width="10" height="7"/>
<path fill-rule="evenodd" clip-rule="evenodd" d="M13.9164 7.993C14.0279 7.88148 14.0279 7.70066 13.9164 7.58914C13.8048 7.47761 13.624 7.47761 13.5125 7.58914L8.99111 12.1105L6.3077 9.4271C6.19617 9.31558 6.01536 9.31558 5.90383 9.4271C5.79231 9.53862 5.79231 9.71944 5.90383 9.83096L8.69154 12.6187C8.85665 12.7838 9.12436 12.7838 9.28947 12.6187L9.38823 12.5199L9.38883 12.5205L13.9164 7.993Z"/>
</mask>
<path fill-rule="evenodd" clip-rule="evenodd" d="M13.9164 7.993C14.0279 7.88148 14.0279 7.70066 13.9164 7.58914C13.8048 7.47761 13.624 7.47761 13.5125 7.58914L8.99111 12.1105L6.3077 9.4271C6.19617 9.31558 6.01536 9.31558 5.90383 9.4271C5.79231 9.53862 5.79231 9.71944 5.90383 9.83096L8.69154 12.6187C8.85665 12.7838 9.12436 12.7838 9.28947 12.6187L9.38823 12.5199L9.38883 12.5205L13.9164 7.993Z" fill="#0474F3"/>
<path d="M13.9164 7.58914L13.8456 7.65985V7.65985L13.9164 7.58914ZM13.9164 7.993L13.8456 7.92229V7.92229L13.9164 7.993ZM13.5125 7.58914L13.5832 7.65985V7.65985L13.5125 7.58914ZM8.99111 12.1105L8.9204 12.1812L8.99111 12.2519L9.06182 12.1812L8.99111 12.1105ZM6.3077 9.4271L6.23699 9.49781H6.23699L6.3077 9.4271ZM5.90383 9.4271L5.97454 9.49781H5.97454L5.90383 9.4271ZM5.90383 9.83096L5.83312 9.90167H5.83312L5.90383 9.83096ZM8.69154 12.6187L8.62083 12.6894V12.6894L8.69154 12.6187ZM9.28947 12.6187L9.36018 12.6894V12.6894L9.28947 12.6187ZM9.38823 12.5199L9.45892 12.4492L9.38821 12.3785L9.31752 12.4492L9.38823 12.5199ZM9.38883 12.5205L9.31813 12.5912L9.38885 12.6619L9.45954 12.5912L9.38883 12.5205ZM13.8456 7.65985C13.9181 7.73232 13.9181 7.84982 13.8456 7.92229L13.9871 8.06371C14.1376 7.91313 14.1376 7.669 13.9871 7.51843L13.8456 7.65985ZM13.5832 7.65985C13.6557 7.58738 13.7732 7.58738 13.8456 7.65985L13.9871 7.51843C13.8365 7.36785 13.5924 7.36785 13.4418 7.51843L13.5832 7.65985ZM9.06182 12.1812L13.5832 7.65985L13.4418 7.51843L8.9204 12.0398L9.06182 12.1812ZM6.23699 9.49781L8.9204 12.1812L9.06182 12.0398L6.37841 9.35639L6.23699 9.49781ZM5.97454 9.49781C6.04702 9.42534 6.16451 9.42534 6.23699 9.49781L6.37841 9.35639C6.22783 9.20581 5.9837 9.20581 5.83312 9.35639L5.97454 9.49781ZM5.97454 9.76025C5.90207 9.68778 5.90207 9.57028 5.97454 9.49781L5.83312 9.35639C5.68255 9.50697 5.68255 9.7511 5.83312 9.90167L5.97454 9.76025ZM8.76225 12.548L5.97454 9.76025L5.83312 9.90167L8.62083 12.6894L8.76225 12.548ZM9.21876 12.548C9.0927 12.674 8.88831 12.674 8.76225 12.548L8.62083 12.6894C8.825 12.8935 9.15601 12.8935 9.36018 12.6894L9.21876 12.548ZM9.31752 12.4492L9.21876 12.548L9.36018 12.6894L9.45894 12.5906L9.31752 12.4492ZM9.45953 12.4498L9.45892 12.4492L9.31753 12.5906L9.31813 12.5912L9.45953 12.4498ZM13.8456 7.92229L9.31812 12.4498L9.45954 12.5912L13.9871 8.06371L13.8456 7.92229Z" fill="#0474F3" mask="url(#path-2-outside-1_1038_552)"/>
</svg>
