<svg width="20" height="20" viewBox="0 0 20 20" fill="none" xmlns="http://www.w3.org/2000/svg">
<mask id="path-1-outside-1_1038_1061" maskUnits="userSpaceOnUse" x="0" y="0" width="20" height="20" fill="black">
<rect fill="white" width="20" height="20"/>
<path fill-rule="evenodd" clip-rule="evenodd" d="M12.5217 7.26087C12.5217 10.1664 10.1664 12.5217 7.26087 12.5217C4.35537 12.5217 2 10.1664 2 7.26087C2 4.35537 4.35537 2 7.26087 2C10.1664 2 12.5217 4.35537 12.5217 7.26087ZM11.688 11.688C10.555 12.821 8.98976 13.5217 7.26087 13.5217C3.80309 13.5217 1 10.7187 1 7.26087C1 3.80309 3.80309 1 7.26087 1C10.7187 1 13.5217 3.80309 13.5217 7.26087C13.5217 8.62885 13.083 9.89436 12.3386 10.9244L19.3535 17.9393C19.5487 18.1345 19.5487 18.4511 19.3535 18.6464C19.1582 18.8416 18.8416 18.8416 18.6464 18.6464L11.688 11.688Z"/>
</mask>
<path fill-rule="evenodd" clip-rule="evenodd" d="M12.5217 7.26087C12.5217 10.1664 10.1664 12.5217 7.26087 12.5217C4.35537 12.5217 2 10.1664 2 7.26087C2 4.35537 4.35537 2 7.26087 2C10.1664 2 12.5217 4.35537 12.5217 7.26087ZM11.688 11.688C10.555 12.821 8.98976 13.5217 7.26087 13.5217C3.80309 13.5217 1 10.7187 1 7.26087C1 3.80309 3.80309 1 7.26087 1C10.7187 1 13.5217 3.80309 13.5217 7.26087C13.5217 8.62885 13.083 9.89436 12.3386 10.9244L19.3535 17.9393C19.5487 18.1345 19.5487 18.4511 19.3535 18.6464C19.1582 18.8416 18.8416 18.8416 18.6464 18.6464L11.688 11.688Z" fill="#1D1D1D"/>
<path d="M11.688 11.688L11.9001 11.4758L11.688 11.2637L11.4758 11.4758L11.688 11.688ZM12.3386 10.9244L12.0954 10.7486L11.9457 10.9558L12.1264 11.1365L12.3386 10.9244ZM19.3535 17.9393L19.1413 18.1514L19.3535 17.9393ZM7.26087 12.8217C10.3321 12.8217 12.8217 10.3321 12.8217 7.26087H12.2217C12.2217 10.0007 10.0007 12.2217 7.26087 12.2217V12.8217ZM1.7 7.26087C1.7 10.3321 4.18969 12.8217 7.26087 12.8217V12.2217C4.52106 12.2217 2.3 10.0007 2.3 7.26087H1.7ZM7.26087 1.7C4.18969 1.7 1.7 4.18969 1.7 7.26087H2.3C2.3 4.52106 4.52106 2.3 7.26087 2.3V1.7ZM12.8217 7.26087C12.8217 4.18969 10.3321 1.7 7.26087 1.7V2.3C10.0007 2.3 12.2217 4.52106 12.2217 7.26087H12.8217ZM7.26087 13.8217C9.07252 13.8217 10.7131 13.0871 11.9001 11.9001L11.4758 11.4758C10.3968 12.5549 8.907 13.2217 7.26087 13.2217V13.8217ZM0.7 7.26087C0.7 10.8843 3.6374 13.8217 7.26087 13.8217V13.2217C3.96877 13.2217 1.3 10.553 1.3 7.26087H0.7ZM7.26087 0.7C3.6374 0.7 0.7 3.6374 0.7 7.26087H1.3C1.3 3.96877 3.96877 1.3 7.26087 1.3V0.7ZM13.8217 7.26087C13.8217 3.6374 10.8843 0.7 7.26087 0.7V1.3C10.553 1.3 13.2217 3.96877 13.2217 7.26087H13.8217ZM12.5817 11.1001C13.3619 10.0207 13.8217 8.69402 13.8217 7.26087H13.2217C13.2217 8.56367 12.8041 9.76806 12.0954 10.7486L12.5817 11.1001ZM12.1264 11.1365L19.1413 18.1514L19.5656 17.7271L12.5507 10.7122L12.1264 11.1365ZM19.1413 18.1514C19.2194 18.2295 19.2194 18.3561 19.1413 18.4342L19.5656 18.8585C19.878 18.5461 19.878 18.0395 19.5656 17.7271L19.1413 18.1514ZM19.1413 18.4342C19.0632 18.5123 18.9366 18.5123 18.8585 18.4342L18.4342 18.8585C18.7466 19.1709 19.2532 19.1709 19.5656 18.8585L19.1413 18.4342ZM18.8585 18.4342L11.9001 11.4758L11.4758 11.9001L18.4342 18.8585L18.8585 18.4342Z" fill="#1D1D1D" mask="url(#path-1-outside-1_1038_1061)"/>
</svg>
