<svg width="24" height="24" viewBox="0 0 24 24" fill="none" xmlns="http://www.w3.org/2000/svg">
<mask id="mask0_1177_14776" style="mask-type:alpha" maskUnits="userSpaceOnUse" x="0" y="0" width="24" height="24">
<path d="M23.2243 8.90825L16.0296 7.86261L12.8133 1.3423C12.7255 1.16378 12.581 1.01926 12.4024 0.931413C11.9547 0.710385 11.4106 0.894575 11.1868 1.3423L7.97055 7.86261L0.77582 8.90825C0.577461 8.93658 0.396105 9.03009 0.257255 9.17178C0.0893918 9.34431 -0.0031083 9.57643 7.97568e-05 9.81713C0.00326781 10.0578 0.101883 10.2874 0.274257 10.4554L5.47974 15.5306L4.24992 22.697C4.22108 22.8637 4.23953 23.0351 4.30317 23.1919C4.36681 23.3486 4.47311 23.4844 4.60999 23.5838C4.74688 23.6833 4.90889 23.7423 5.07764 23.7544C5.24639 23.7664 5.41514 23.7309 5.56475 23.6519L12.0001 20.2685L18.4354 23.6519C18.611 23.7454 18.8151 23.7766 19.0106 23.7426C19.5037 23.6576 19.8352 23.19 19.7502 22.697L18.5204 15.5306L23.7259 10.4554C23.8675 10.3166 23.9611 10.1352 23.9894 9.93687C24.0659 9.44098 23.7202 8.98192 23.2243 8.90825Z" fill="#E4E4E4"/>
</mask>
<g mask="url(#mask0_1177_14776)">
<rect x="12" y="-2" width="16" height="29" fill="#FADB14"/>
</g>
<mask id="mask1_1177_14776" style="mask-type:alpha" maskUnits="userSpaceOnUse" x="0" y="0" width="24" height="24">
<path d="M0.775705 8.90825L7.97044 7.86261L11.1867 1.3423C11.2745 1.16378 11.419 1.01926 11.5976 0.931413C12.0453 0.710385 12.5894 0.894575 12.8132 1.3423L16.0294 7.86261L23.2242 8.90825C23.4225 8.93658 23.6039 9.03009 23.7427 9.17178C23.9106 9.34431 24.0031 9.57643 23.9999 9.81713C23.9967 10.0578 23.8981 10.2874 23.7257 10.4554L18.5203 15.5306L19.7501 22.697C19.7789 22.8637 19.7605 23.0351 19.6968 23.1919C19.6332 23.3486 19.5269 23.4844 19.39 23.5838C19.2531 23.6833 19.0911 23.7423 18.9224 23.7544C18.7536 23.7664 18.5849 23.7309 18.4352 23.6519L11.9999 20.2685L5.56464 23.6519C5.38895 23.7454 5.18492 23.7766 4.9894 23.7426C4.49634 23.6576 4.16479 23.19 4.24981 22.697L5.47963 15.5306L0.274141 10.4554C0.132458 10.3166 0.0389462 10.1352 0.0106087 9.93687C-0.0659008 9.44098 0.27981 8.98192 0.775705 8.90825Z" fill="#E4E4E4"/>
</mask>
<g mask="url(#mask1_1177_14776)">
<rect width="16" height="29" transform="matrix(-1 0 0 1 12 -2)" fill="#E4E4E4"/>
</g>
</svg>
