<svg width="24" height="24" viewBox="0 0 24 24" fill="none" xmlns="http://www.w3.org/2000/svg">
<path d="M23.2243 8.9893L16.0296 7.94367L12.8133 1.42335C12.7255 1.24483 12.581 1.10031 12.4024 1.01247C11.9547 0.79144 11.4106 0.97563 11.1868 1.42335L7.97055 7.94367L0.77582 8.9893C0.577461 9.01764 0.396105 9.11115 0.257255 9.25283C0.0893918 9.42537 -0.0031083 9.65748 7.97568e-05 9.89818C0.00326781 10.1389 0.101883 10.3685 0.274257 10.5365L5.47974 15.6116L4.24992 22.778C4.22108 22.9447 4.23953 23.1162 4.30317 23.2729C4.36681 23.4297 4.47311 23.5655 4.60999 23.6649C4.74688 23.7643 4.90889 23.8234 5.07764 23.8354C5.24639 23.8475 5.41514 23.812 5.56475 23.733L12.0001 20.3496L18.4354 23.733C18.6111 23.8265 18.8151 23.8577 19.0106 23.8237C19.5037 23.7386 19.8352 23.2711 19.7502 22.778L18.5204 15.6116L23.7259 10.5365C23.8675 10.3976 23.9611 10.2163 23.9894 10.0179C24.0659 9.52203 23.7202 9.06297 23.2243 8.9893Z" fill="#E4E4E4"/>
</svg>
