<svg width="20" height="20" viewBox="0 0 20 20" fill="none" xmlns="http://www.w3.org/2000/svg">
<circle cx="9.75" cy="9.75" r="8.33333" stroke="#555555" stroke-width="0.833333"/>
<path d="M10.067 13.8233C9.95236 13.9384 9.81174 13.996 9.64511 13.996C9.47848 13.996 9.33761 13.9387 9.2225 13.8243C9.10739 13.7097 9.04983 13.569 9.04983 13.4024C9.04983 13.2356 9.10707 13.0947 9.22155 12.9796C9.33616 12.8645 9.47678 12.8069 9.64341 12.8069C9.81017 12.8069 9.95111 12.8642 10.0662 12.9788C10.1813 13.0933 10.2389 13.2339 10.2389 13.4007C10.2389 13.5673 10.1816 13.7082 10.067 13.8233Z" fill="#555555"/>
<path d="M10.6572 7.19438C10.3812 6.95737 10.0524 6.83887 9.67075 6.83887C9.39604 6.83887 9.14534 6.90849 8.91864 7.04772C8.69193 7.18684 8.49495 7.36032 8.32769 7.56817C8.25041 7.65714 8.161 7.71564 8.05946 7.74366C7.95792 7.77168 7.85757 7.75937 7.75842 7.70672C7.68039 7.6606 7.63251 7.59311 7.61479 7.50427C7.59707 7.41542 7.61284 7.3294 7.6621 7.24621C7.87862 6.89925 8.1674 6.62762 8.52844 6.43133C8.88961 6.23517 9.27992 6.13708 9.6994 6.13708C10.2649 6.13708 10.7576 6.3171 11.1776 6.67713C11.5977 7.03729 11.8078 7.49428 11.8078 8.04809C11.8078 8.42446 11.7065 8.76551 11.5039 9.07126C11.3014 9.37713 11.0699 9.65969 10.8093 9.91894C10.6281 10.0956 10.4616 10.2828 10.3098 10.4805C10.1581 10.6781 10.0571 10.9041 10.0068 11.1583C9.98849 11.2502 9.94476 11.3299 9.87564 11.3975C9.80653 11.4653 9.7212 11.4991 9.61966 11.4991C9.52491 11.4991 9.44203 11.466 9.37103 11.3998C9.29991 11.3336 9.26918 11.2511 9.27886 11.1525C9.30789 10.8142 9.42067 10.5045 9.61721 10.2234C9.81388 9.94225 10.0414 9.68457 10.2998 9.45033C10.5037 9.26183 10.6832 9.05593 10.8383 8.83262C10.9935 8.60931 11.0711 8.35942 11.0711 8.08296C11.0711 7.72745 10.9331 7.43126 10.6572 7.19438Z" fill="#555555"/>
</svg>
