<svg width="24" height="24" viewBox="0 0 24 24" fill="none" xmlns="http://www.w3.org/2000/svg">
<mask id="mask0_1634_1073" style="mask-type:alpha" maskUnits="userSpaceOnUse" x="0" y="0" width="24" height="24">
<rect x="24" width="24" height="24" transform="rotate(90 24 0)" fill="#D9D9D9"/>
</mask>
<g mask="url(#mask0_1634_1073)">
<path d="M11.9998 7.77962L2.56514 17.2139C2.38498 17.3943 2.16946 17.4834 1.91857 17.4811C1.66769 17.4787 1.45217 17.3873 1.27201 17.2069C1.09165 17.0267 1.00146 16.8112 1.00146 16.5603C1.00146 16.3095 1.09165 16.0939 1.27201 15.9138L10.61 6.56843C10.8075 6.37094 11.0277 6.22675 11.2707 6.13585C11.5138 6.04496 11.7568 5.99951 11.9998 5.99951C12.2427 5.99951 12.4857 6.04496 12.7289 6.13585C12.9718 6.22675 13.192 6.37094 13.3895 6.56843L22.7345 15.9138C22.9149 16.0939 23.0039 16.3107 23.0014 16.564C22.9992 16.8171 22.9079 17.0338 22.7275 17.2139C22.5473 17.3943 22.3318 17.4845 22.0809 17.4845C21.8301 17.4845 21.6145 17.3943 21.4344 17.2139L11.9998 7.77962Z" fill="#1C1B1F"/>
</g>
</svg>
