<svg width="72" height="72" viewBox="0 0 72 72" fill="none" xmlns="http://www.w3.org/2000/svg">
<circle cx="36" cy="36" r="36" fill="#555555"/>
<path d="M33.4131 42.7488C33.4622 37.1042 35.2783 35.1409 38.6651 32.9321C41.1683 31.3615 42.5917 29.4472 42.5917 26.7476C42.5917 23.1155 39.7449 20.7104 36.1618 20.7104C33.3011 20.7104 30.6928 22.2969 29.8822 25.4081C29.6418 26.3305 28.8837 27.0912 27.9304 27.0912C26.927 27.0912 26.1033 26.2565 26.298 25.2722C27.2237 20.5923 31.2264 17.7163 36.1618 17.7163C42.0027 17.7163 45.9785 21.5939 45.9785 26.8949C45.9785 30.478 44.3096 32.9812 41.0701 35.0918C37.9288 37.1042 36.849 38.8712 36.7999 42.7488C36.7999 43.2096 36.4263 43.5832 35.9655 43.5832H34.2476C33.7867 43.5832 33.4131 43.2096 33.4131 42.7488ZM35.2292 53.9889C33.7567 53.9889 32.5787 52.8109 32.5787 51.3875C32.5787 49.915 33.7567 48.737 35.2292 48.737C36.6526 48.737 37.8306 49.915 37.8306 51.3875C37.8306 52.8109 36.6526 53.9889 35.2292 53.9889Z" fill="white"/>
</svg>
