<svg width="24" height="24" viewBox="0 0 24 24" fill="none" xmlns="http://www.w3.org/2000/svg">
<mask id="path-1-outside-1_1274_15572" maskUnits="userSpaceOnUse" x="-1.17691" y="-1.23319" width="26.8701" height="26.8701" fill="black">
<rect fill="white" x="-1.17691" y="-1.23319" width="26.8701" height="26.8701"/>
<path d="M10.8983 4.41271C12.1835 3.12747 13.72 2.47658 15.5077 2.46003C17.2953 2.44334 18.8293 3.07521 20.1097 4.35564C21.3901 5.63607 22.0247 7.17283 22.0136 8.96591C22.0024 10.759 21.3542 12.2981 20.069 13.5834L12.6607 20.9917C11.7632 21.8891 10.6917 22.3434 9.44602 22.3544C8.20038 22.3652 7.12883 21.9218 6.23137 21.0243C5.33391 20.1269 4.89063 19.0554 4.90152 17.8099C4.91241 16.5641 5.36658 15.4925 6.26404 14.595L13.2807 7.57835C13.779 7.08012 14.382 6.82486 15.0898 6.81256C15.7975 6.80011 16.4012 7.04378 16.901 7.54356C17.4008 8.04335 17.6535 8.65047 17.6591 9.36493C17.6648 10.0794 17.4129 10.6914 16.9033 11.2009L10.2782 17.826C10.158 17.9462 10.0165 18.0063 9.85374 18.0061C9.69111 18.0061 9.54961 17.946 9.42926 17.8256C9.30877 17.7051 9.24867 17.5637 9.24895 17.4013C9.24923 17.239 9.30948 17.0977 9.42969 16.9775L16.0548 10.3524C16.3256 10.0816 16.4638 9.75801 16.4693 9.38169C16.4747 9.00522 16.3419 8.68158 16.0711 8.41076C15.8002 8.1398 15.4765 8.00707 15.1002 8.01259C14.7237 8.01796 14.4001 8.15606 14.1293 8.42688L7.09623 15.4599C6.44018 16.1225 6.1077 16.9083 6.09879 17.8175C6.08974 18.7266 6.41678 19.5127 7.0799 20.1758C7.73793 20.8338 8.52636 21.1577 9.44517 21.1474C10.3638 21.1372 11.1528 20.8025 11.8121 20.1431L19.2204 12.7349C20.2713 11.6905 20.8014 10.4348 20.8106 8.96782C20.8199 7.50099 20.3015 6.24447 19.2552 5.19823C18.224 4.16699 16.9783 3.65943 15.5183 3.67555C14.0583 3.69167 12.8011 4.22023 11.7468 5.26123L4.73012 12.2779C4.60991 12.3981 4.46849 12.4582 4.30585 12.4582C4.14308 12.4581 4.00151 12.3979 3.88116 12.2775C3.76081 12.1572 3.70071 12.0157 3.70085 11.8532C3.70113 11.6909 3.76138 11.5496 3.88159 11.4294L10.8983 4.41271Z"/>
</mask>
<path d="M10.8983 4.41271C12.1835 3.12747 13.72 2.47658 15.5077 2.46003C17.2953 2.44334 18.8293 3.07521 20.1097 4.35564C21.3901 5.63607 22.0247 7.17283 22.0136 8.96591C22.0024 10.759 21.3542 12.2981 20.069 13.5834L12.6607 20.9917C11.7632 21.8891 10.6917 22.3434 9.44602 22.3544C8.20038 22.3652 7.12883 21.9218 6.23137 21.0243C5.33391 20.1269 4.89063 19.0554 4.90152 17.8099C4.91241 16.5641 5.36658 15.4925 6.26404 14.595L13.2807 7.57835C13.779 7.08012 14.382 6.82486 15.0898 6.81256C15.7975 6.80011 16.4012 7.04378 16.901 7.54356C17.4008 8.04335 17.6535 8.65047 17.6591 9.36493C17.6648 10.0794 17.4129 10.6914 16.9033 11.2009L10.2782 17.826C10.158 17.9462 10.0165 18.0063 9.85374 18.0061C9.69111 18.0061 9.54961 17.946 9.42926 17.8256C9.30877 17.7051 9.24867 17.5637 9.24895 17.4013C9.24923 17.239 9.30948 17.0977 9.42969 16.9775L16.0548 10.3524C16.3256 10.0816 16.4638 9.75801 16.4693 9.38169C16.4747 9.00522 16.3419 8.68158 16.0711 8.41076C15.8002 8.1398 15.4765 8.00707 15.1002 8.01259C14.7237 8.01796 14.4001 8.15606 14.1293 8.42688L7.09623 15.4599C6.44018 16.1225 6.1077 16.9083 6.09879 17.8175C6.08974 18.7266 6.41678 19.5127 7.0799 20.1758C7.73793 20.8338 8.52636 21.1577 9.44517 21.1474C10.3638 21.1372 11.1528 20.8025 11.8121 20.1431L19.2204 12.7349C20.2713 11.6905 20.8014 10.4348 20.8106 8.96782C20.8199 7.50099 20.3015 6.24447 19.2552 5.19823C18.224 4.16699 16.9783 3.65943 15.5183 3.67555C14.0583 3.69167 12.8011 4.22023 11.7468 5.26123L4.73012 12.2779C4.60991 12.3981 4.46849 12.4582 4.30585 12.4582C4.14308 12.4581 4.00151 12.3979 3.88116 12.2775C3.76081 12.1572 3.70071 12.0157 3.70085 11.8532C3.70113 11.6909 3.76138 11.5496 3.88159 11.4294L10.8983 4.41271Z" fill="#555555"/>
<path d="M10.8983 4.41271C12.1835 3.12747 13.72 2.47658 15.5077 2.46003C17.2953 2.44334 18.8293 3.07521 20.1097 4.35564C21.3901 5.63607 22.0247 7.17283 22.0136 8.96591C22.0024 10.759 21.3542 12.2981 20.069 13.5834L12.6607 20.9917C11.7632 21.8891 10.6917 22.3434 9.44602 22.3544C8.20038 22.3652 7.12883 21.9218 6.23137 21.0243C5.33391 20.1269 4.89063 19.0554 4.90152 17.8099C4.91241 16.5641 5.36658 15.4925 6.26404 14.595L13.2807 7.57835C13.779 7.08012 14.382 6.82486 15.0898 6.81256C15.7975 6.80011 16.4012 7.04378 16.901 7.54356C17.4008 8.04335 17.6535 8.65047 17.6591 9.36493C17.6648 10.0794 17.4129 10.6914 16.9033 11.2009L10.2782 17.826C10.158 17.9462 10.0165 18.0063 9.85374 18.0061C9.69111 18.0061 9.54961 17.946 9.42926 17.8256C9.30877 17.7051 9.24867 17.5637 9.24895 17.4013C9.24923 17.239 9.30948 17.0977 9.42969 16.9775L16.0548 10.3524C16.3256 10.0816 16.4638 9.75801 16.4693 9.38169C16.4747 9.00522 16.3419 8.68158 16.0711 8.41076C15.8002 8.1398 15.4765 8.00707 15.1002 8.01259C14.7237 8.01796 14.4001 8.15606 14.1293 8.42688L7.09623 15.4599C6.44018 16.1225 6.1077 16.9083 6.09879 17.8175C6.08974 18.7266 6.41678 19.5127 7.0799 20.1758C7.73793 20.8338 8.52636 21.1577 9.44517 21.1474C10.3638 21.1372 11.1528 20.8025 11.8121 20.1431L19.2204 12.7349C20.2713 11.6905 20.8014 10.4348 20.8106 8.96782C20.8199 7.50099 20.3015 6.24447 19.2552 5.19823C18.224 4.16699 16.9783 3.65943 15.5183 3.67555C14.0583 3.69167 12.8011 4.22023 11.7468 5.26123L4.73012 12.2779C4.60991 12.3981 4.46849 12.4582 4.30585 12.4582C4.14308 12.4581 4.00151 12.3979 3.88116 12.2775C3.76081 12.1572 3.70071 12.0157 3.70085 11.8532C3.70113 11.6909 3.76138 11.5496 3.88159 11.4294L10.8983 4.41271Z" stroke="#555555" stroke-width="0.24" mask="url(#path-1-outside-1_1274_15572)"/>
</svg>
